<svg width="26" height="28" viewBox="0 0 30 32" fill="none" xmlns="http://www.w3.org/2000/svg">
<path d="M16.9815 7.14399L17.0134 29.8209C17.0134 30.3313 16.8378 30.762 16.4865 31.1133C16.1352 31.4646 15.7049 31.6398 15.1954 31.6389C14.6851 31.6389 14.2543 31.4633 13.9031 31.112C13.5518 30.7608 13.3766 30.3304 13.3774 29.821L13.4093 7.14399L3.71341 16.8399C3.35194 17.2014 2.92626 17.3821 2.43636 17.3821C1.94646 17.3821 1.52162 17.2014 1.16185 16.8399C0.800384 16.4784 0.61965 16.0528 0.61965 15.5629C0.61965 15.073 0.800384 14.6481 1.16186 14.2883L13.9196 1.53057C14.2811 1.1691 14.7068 0.988364 15.1967 0.988364C15.6866 0.988364 16.1114 1.1691 16.4712 1.53057L29.229 14.2884C29.5904 14.6498 29.7712 15.0755 29.7712 15.5654C29.7712 16.0553 29.5904 16.4801 29.229 16.8399C28.8675 17.2014 28.4418 17.3821 27.9519 17.3821C27.462 17.3821 27.0372 17.2014 26.6774 16.8399L16.9815 7.14399Z" fill="#524D47"/>
</svg>
