<svg xmlns="http://www.w3.org/2000/svg" xmlns:xlink="http://www.w3.org/1999/xlink" width="1198" zoomAndPan="magnify" viewBox="0 0 898.5 255.749984" height="341" preserveAspectRatio="xMidYMid meet" version="1.0"><defs><g/><clipPath id="a5a985ed43"><path d="M 732.109375 48.667969 L 854.988281 48.667969 L 854.988281 171.550781 L 732.109375 171.550781 Z M 732.109375 48.667969 " clip-rule="nonzero"/></clipPath><clipPath id="d540b4e1f3"><path d="M 146.457031 48.667969 L 269.335938 48.667969 L 269.335938 171.550781 L 146.457031 171.550781 Z M 146.457031 48.667969 " clip-rule="nonzero"/></clipPath></defs><g fill="#000000" fill-opacity="1"><g transform="translate(48.884492, 162.821656)"><g><path d="M 65.8125 -22.421875 C 69.59375 -22.421875 73.265625 -22.988281 76.828125 -24.125 C 80.390625 -25.269531 83.003906 -26.375 84.671875 -27.4375 L 87.171875 -29.140625 L 97.734375 -8.046875 C 97.378906 -7.785156 96.894531 -7.429688 96.28125 -6.984375 C 95.664062 -6.546875 94.234375 -5.734375 91.984375 -4.546875 C 89.742188 -3.359375 87.347656 -2.320312 84.796875 -1.4375 C 82.253906 -0.5625 78.914062 0.222656 74.78125 0.921875 C 70.644531 1.628906 66.378906 1.984375 61.984375 1.984375 C 51.878906 1.984375 42.296875 -0.5 33.234375 -5.46875 C 24.179688 -10.4375 16.882812 -17.273438 11.34375 -25.984375 C 5.800781 -34.691406 3.03125 -44.097656 3.03125 -54.203125 C 3.03125 -61.859375 4.65625 -69.203125 7.90625 -76.234375 C 11.164062 -83.265625 15.5 -89.285156 20.90625 -94.296875 C 26.3125 -99.304688 32.617188 -103.304688 39.828125 -106.296875 C 47.035156 -109.285156 54.421875 -110.78125 61.984375 -110.78125 C 69.023438 -110.78125 75.507812 -109.945312 81.4375 -108.28125 C 87.375 -106.613281 91.570312 -104.941406 94.03125 -103.265625 L 97.734375 -100.765625 L 87.171875 -79.65625 C 86.554688 -80.1875 85.632812 -80.828125 84.40625 -81.578125 C 83.175781 -82.328125 80.710938 -83.316406 77.015625 -84.546875 C 73.328125 -85.773438 69.59375 -86.390625 65.8125 -86.390625 C 59.832031 -86.390625 54.46875 -85.421875 49.71875 -83.484375 C 44.96875 -81.546875 41.207031 -78.992188 38.4375 -75.828125 C 35.675781 -72.671875 33.566406 -69.265625 32.109375 -65.609375 C 30.660156 -61.960938 29.9375 -58.25 29.9375 -54.46875 C 29.9375 -46.207031 33.035156 -38.800781 39.234375 -32.25 C 45.429688 -25.695312 54.289062 -22.421875 65.8125 -22.421875 Z M 65.8125 -22.421875 "/></g></g></g><g fill="#000000" fill-opacity="1"><g transform="translate(148.193246, 162.821656)"><g><path d="M 3.03125 -54.46875 C 3.03125 -70.207031 8.394531 -83.523438 19.125 -94.421875 C 29.851562 -105.328125 42.78125 -110.78125 57.90625 -110.78125 C 73.113281 -110.78125 86.035156 -105.351562 96.671875 -94.5 C 107.316406 -83.644531 112.640625 -70.300781 112.640625 -54.46875 C 112.640625 -38.550781 107.40625 -25.160156 96.9375 -14.296875 C 86.476562 -3.441406 73.46875 1.984375 57.90625 1.984375 C 41.988281 1.984375 28.863281 -3.398438 18.53125 -14.171875 C 8.195312 -24.941406 3.03125 -38.375 3.03125 -54.46875 Z M 29.8125 -54.46875 C 29.8125 -48.75 30.6875 -43.535156 32.4375 -38.828125 C 34.195312 -34.128906 37.273438 -30.15625 41.671875 -26.90625 C 46.066406 -23.65625 51.476562 -22.03125 57.90625 -22.03125 C 67.132812 -22.03125 74.097656 -25.191406 78.796875 -31.515625 C 83.503906 -37.847656 85.859375 -45.5 85.859375 -54.46875 C 85.859375 -63.351562 83.460938 -70.984375 78.671875 -77.359375 C 73.878906 -83.734375 66.957031 -86.921875 57.90625 -86.921875 C 48.9375 -86.921875 42.007812 -83.734375 37.125 -77.359375 C 32.25 -70.984375 29.8125 -63.351562 29.8125 -54.46875 Z M 29.8125 -54.46875 "/></g></g></g><g fill="#000000" fill-opacity="1"><g transform="translate(263.855649, 162.821656)"><g><path d="M 32.703125 -67.53125 L 32.703125 0 L 7.90625 0 L 7.90625 -108.8125 L 32.703125 -108.8125 L 75.96875 -41.28125 L 76.234375 -41.28125 L 76.234375 -108.8125 L 101.03125 -108.8125 L 101.03125 0 L 76.234375 0 L 32.96875 -67.53125 Z M 32.703125 -67.53125 "/></g></g></g><g fill="#000000" fill-opacity="1"><g transform="translate(372.791942, 162.821656)"><g><path d="M 1.0625 -87.046875 L 1.0625 -108.8125 L 77.546875 -108.8125 L 77.546875 -87.046875 L 51.703125 -87.046875 L 51.703125 0 L 26.90625 0 L 26.90625 -87.046875 Z M 1.0625 -87.046875 "/></g></g></g><g fill="#000000" fill-opacity="1"><g transform="translate(451.394876, 162.821656)"><g><path d="M 63.171875 -108.8125 L 107.09375 0 L 80.453125 0 L 72.40625 -21.765625 L 31 -21.765625 L 22.953125 0 L -3.6875 0 L 40.234375 -108.8125 Z M 63.96875 -43.53125 L 51.828125 -75.171875 L 51.5625 -75.171875 L 39.4375 -43.53125 Z M 63.96875 -43.53125 "/></g></g></g><g fill="#000000" fill-opacity="1"><g transform="translate(554.792029, 162.821656)"><g><path d="M 65.8125 -22.421875 C 69.59375 -22.421875 73.265625 -22.988281 76.828125 -24.125 C 80.390625 -25.269531 83.003906 -26.375 84.671875 -27.4375 L 87.171875 -29.140625 L 97.734375 -8.046875 C 97.378906 -7.785156 96.894531 -7.429688 96.28125 -6.984375 C 95.664062 -6.546875 94.234375 -5.734375 91.984375 -4.546875 C 89.742188 -3.359375 87.347656 -2.320312 84.796875 -1.4375 C 82.253906 -0.5625 78.914062 0.222656 74.78125 0.921875 C 70.644531 1.628906 66.378906 1.984375 61.984375 1.984375 C 51.878906 1.984375 42.296875 -0.5 33.234375 -5.46875 C 24.179688 -10.4375 16.882812 -17.273438 11.34375 -25.984375 C 5.800781 -34.691406 3.03125 -44.097656 3.03125 -54.203125 C 3.03125 -61.859375 4.65625 -69.203125 7.90625 -76.234375 C 11.164062 -83.265625 15.5 -89.285156 20.90625 -94.296875 C 26.3125 -99.304688 32.617188 -103.304688 39.828125 -106.296875 C 47.035156 -109.285156 54.421875 -110.78125 61.984375 -110.78125 C 69.023438 -110.78125 75.507812 -109.945312 81.4375 -108.28125 C 87.375 -106.613281 91.570312 -104.941406 94.03125 -103.265625 L 97.734375 -100.765625 L 87.171875 -79.65625 C 86.554688 -80.1875 85.632812 -80.828125 84.40625 -81.578125 C 83.175781 -82.328125 80.710938 -83.316406 77.015625 -84.546875 C 73.328125 -85.773438 69.59375 -86.390625 65.8125 -86.390625 C 59.832031 -86.390625 54.46875 -85.421875 49.71875 -83.484375 C 44.96875 -81.546875 41.207031 -78.992188 38.4375 -75.828125 C 35.675781 -72.671875 33.566406 -69.265625 32.109375 -65.609375 C 30.660156 -61.960938 29.9375 -58.25 29.9375 -54.46875 C 29.9375 -46.207031 33.035156 -38.800781 39.234375 -32.25 C 45.429688 -25.695312 54.289062 -22.421875 65.8125 -22.421875 Z M 65.8125 -22.421875 "/></g></g></g><g fill="#000000" fill-opacity="1"><g transform="translate(654.100783, 162.821656)"><g><path d="M 1.0625 -87.046875 L 1.0625 -108.8125 L 77.546875 -108.8125 L 77.546875 -87.046875 L 51.703125 -87.046875 L 51.703125 0 L 26.90625 0 L 26.90625 -87.046875 Z M 1.0625 -87.046875 "/></g></g></g><g fill="#000000" fill-opacity="1"><g transform="translate(732.703741, 162.821656)"><g><path d="M 3.03125 -54.46875 C 3.03125 -70.207031 8.394531 -83.523438 19.125 -94.421875 C 29.851562 -105.328125 42.78125 -110.78125 57.90625 -110.78125 C 73.113281 -110.78125 86.035156 -105.351562 96.671875 -94.5 C 107.316406 -83.644531 112.640625 -70.300781 112.640625 -54.46875 C 112.640625 -38.550781 107.40625 -25.160156 96.9375 -14.296875 C 86.476562 -3.441406 73.46875 1.984375 57.90625 1.984375 C 41.988281 1.984375 28.863281 -3.398438 18.53125 -14.171875 C 8.195312 -24.941406 3.03125 -38.375 3.03125 -54.46875 Z M 29.8125 -54.46875 C 29.8125 -48.75 30.6875 -43.535156 32.4375 -38.828125 C 34.195312 -34.128906 37.273438 -30.15625 41.671875 -26.90625 C 46.066406 -23.65625 51.476562 -22.03125 57.90625 -22.03125 C 67.132812 -22.03125 74.097656 -25.191406 78.796875 -31.515625 C 83.503906 -37.847656 85.859375 -45.5 85.859375 -54.46875 C 85.859375 -63.351562 83.460938 -70.984375 78.671875 -77.359375 C 73.878906 -83.734375 66.957031 -86.921875 57.90625 -86.921875 C 48.9375 -86.921875 42.007812 -83.734375 37.125 -77.359375 C 32.25 -70.984375 29.8125 -63.351562 29.8125 -54.46875 Z M 29.8125 -54.46875 "/></g></g></g><g clip-path="url(#a5a985ed43)"><path fill="#de2703" d="M 854.707031 109.96875 C 854.707031 111.976562 854.609375 113.980469 854.414062 115.976562 C 854.214844 117.976562 853.921875 119.957031 853.53125 121.925781 C 853.136719 123.898438 852.652344 125.84375 852.066406 127.761719 C 851.484375 129.683594 850.808594 131.570312 850.042969 133.425781 C 849.273438 135.28125 848.414062 137.09375 847.46875 138.863281 C 846.523438 140.636719 845.492188 142.355469 844.375 144.023438 C 843.261719 145.695312 842.066406 147.304688 840.792969 148.855469 C 839.519531 150.410156 838.171875 151.894531 836.753906 153.3125 C 835.332031 154.734375 833.847656 156.082031 832.296875 157.355469 C 830.742188 158.628906 829.132812 159.820312 827.464844 160.9375 C 825.792969 162.054688 824.074219 163.082031 822.304688 164.03125 C 820.535156 164.976562 818.722656 165.832031 816.867188 166.601562 C 815.011719 167.371094 813.125 168.046875 811.203125 168.628906 C 809.28125 169.210938 807.335938 169.699219 805.367188 170.089844 C 803.398438 170.480469 801.414062 170.777344 799.417969 170.972656 C 797.417969 171.167969 795.414062 171.269531 793.40625 171.269531 C 791.398438 171.269531 789.398438 171.167969 787.398438 170.972656 C 785.402344 170.777344 783.417969 170.480469 781.449219 170.089844 C 779.480469 169.699219 777.535156 169.210938 775.613281 168.628906 C 773.691406 168.046875 771.804688 167.371094 769.949219 166.601562 C 768.09375 165.832031 766.28125 164.976562 764.511719 164.03125 C 762.742188 163.082031 761.019531 162.054688 759.351562 160.9375 C 757.683594 159.820312 756.070312 158.628906 754.519531 157.355469 C 752.96875 156.082031 751.480469 154.734375 750.0625 153.3125 C 748.644531 151.894531 747.296875 150.410156 746.023438 148.855469 C 744.75 147.304688 743.554688 145.695312 742.4375 144.023438 C 741.324219 142.355469 740.292969 140.636719 739.347656 138.863281 C 738.398438 137.09375 737.542969 135.28125 736.773438 133.425781 C 736.007812 131.570312 735.332031 129.683594 734.746094 127.761719 C 734.164062 125.84375 733.679688 123.898438 733.285156 121.925781 C 732.894531 119.957031 732.601562 117.976562 732.402344 115.976562 C 732.207031 113.980469 732.109375 111.976562 732.109375 109.96875 C 732.109375 107.960938 732.207031 105.957031 732.402344 103.960938 C 732.601562 101.960938 732.894531 99.980469 733.285156 98.011719 C 733.679688 96.039062 734.164062 94.09375 734.746094 92.175781 C 735.332031 90.253906 736.007812 88.367188 736.773438 86.511719 C 737.542969 84.65625 738.398438 82.84375 739.347656 81.074219 C 740.292969 79.300781 741.324219 77.582031 742.4375 75.914062 C 743.554688 74.242188 744.75 72.632812 746.023438 71.082031 C 747.296875 69.527344 748.644531 68.042969 750.0625 66.625 C 751.480469 65.203125 752.96875 63.855469 754.519531 62.582031 C 756.070312 61.308594 757.683594 60.117188 759.351562 59 C 761.019531 57.882812 762.742188 56.855469 764.511719 55.90625 C 766.28125 54.960938 768.09375 54.105469 769.949219 53.335938 C 771.804688 52.566406 773.691406 51.890625 775.613281 51.308594 C 777.535156 50.726562 779.480469 50.238281 781.449219 49.847656 C 783.417969 49.457031 785.402344 49.160156 787.398438 48.964844 C 789.398438 48.769531 791.398438 48.667969 793.40625 48.667969 C 795.414062 48.667969 797.417969 48.769531 799.417969 48.964844 C 801.414062 49.160156 803.398438 49.457031 805.367188 49.847656 C 807.335938 50.238281 809.28125 50.726562 811.203125 51.308594 C 813.125 51.890625 815.011719 52.566406 816.867188 53.335938 C 818.722656 54.105469 820.535156 54.960938 822.304688 55.90625 C 824.074219 56.855469 825.792969 57.882812 827.464844 59 C 829.132812 60.117188 830.742188 61.308594 832.296875 62.582031 C 833.847656 63.855469 835.332031 65.203125 836.753906 66.625 C 838.171875 68.042969 839.519531 69.527344 840.792969 71.082031 C 842.066406 72.632812 843.261719 74.242188 844.375 75.914062 C 845.492188 77.582031 846.523438 79.300781 847.46875 81.074219 C 848.414062 82.84375 849.273438 84.65625 850.042969 86.511719 C 850.808594 88.367188 851.484375 90.253906 852.066406 92.175781 C 852.652344 94.09375 853.136719 96.039062 853.53125 98.011719 C 853.921875 99.980469 854.214844 101.960938 854.414062 103.960938 C 854.609375 105.957031 854.707031 107.960938 854.707031 109.96875 Z M 854.707031 109.96875 " fill-opacity="1" fill-rule="nonzero"/></g><g clip-path="url(#d540b4e1f3)"><path fill="#de2703" d="M 269.054688 109.96875 C 269.054688 111.976562 268.957031 113.980469 268.761719 115.976562 C 268.5625 117.976562 268.269531 119.957031 267.878906 121.925781 C 267.484375 123.898438 267 125.84375 266.414062 127.761719 C 265.832031 129.683594 265.15625 131.570312 264.390625 133.425781 C 263.621094 135.28125 262.761719 137.09375 261.816406 138.863281 C 260.871094 140.636719 259.839844 142.355469 258.722656 144.023438 C 257.609375 145.695312 256.414062 147.304688 255.140625 148.855469 C 253.867188 150.410156 252.519531 151.894531 251.101562 153.3125 C 249.679688 154.734375 248.195312 156.082031 246.644531 157.355469 C 245.089844 158.628906 243.480469 159.820312 241.8125 160.9375 C 240.140625 162.054688 238.421875 163.082031 236.652344 164.03125 C 234.882812 164.976562 233.070312 165.832031 231.214844 166.601562 C 229.359375 167.371094 227.472656 168.046875 225.550781 168.628906 C 223.628906 169.210938 221.683594 169.699219 219.714844 170.089844 C 217.746094 170.480469 215.761719 170.777344 213.765625 170.972656 C 211.765625 171.167969 209.761719 171.269531 207.753906 171.269531 C 205.746094 171.269531 203.746094 171.167969 201.746094 170.972656 C 199.75 170.777344 197.765625 170.480469 195.796875 170.089844 C 193.828125 169.699219 191.882812 169.210938 189.960938 168.628906 C 188.039062 168.046875 186.152344 167.371094 184.296875 166.601562 C 182.441406 165.832031 180.628906 164.976562 178.859375 164.03125 C 177.089844 163.082031 175.367188 162.054688 173.699219 160.9375 C 172.03125 159.820312 170.417969 158.628906 168.867188 157.355469 C 167.316406 156.082031 165.828125 154.734375 164.410156 153.3125 C 162.992188 151.894531 161.644531 150.410156 160.371094 148.855469 C 159.097656 147.304688 157.902344 145.695312 156.785156 144.023438 C 155.671875 142.355469 154.640625 140.636719 153.695312 138.863281 C 152.746094 137.09375 151.890625 135.28125 151.121094 133.425781 C 150.355469 131.570312 149.679688 129.683594 149.09375 127.761719 C 148.511719 125.84375 148.027344 123.898438 147.632812 121.925781 C 147.242188 119.957031 146.949219 117.976562 146.75 115.976562 C 146.554688 113.980469 146.457031 111.976562 146.457031 109.96875 C 146.457031 107.960938 146.554688 105.957031 146.75 103.960938 C 146.949219 101.960938 147.242188 99.980469 147.632812 98.011719 C 148.027344 96.039062 148.511719 94.09375 149.09375 92.175781 C 149.679688 90.253906 150.355469 88.367188 151.121094 86.511719 C 151.890625 84.65625 152.746094 82.84375 153.695312 81.074219 C 154.640625 79.300781 155.671875 77.582031 156.785156 75.914062 C 157.902344 74.242188 159.097656 72.632812 160.371094 71.082031 C 161.644531 69.527344 162.992188 68.042969 164.410156 66.625 C 165.828125 65.203125 167.316406 63.855469 168.867188 62.582031 C 170.417969 61.308594 172.03125 60.117188 173.699219 59 C 175.367188 57.882812 177.089844 56.855469 178.859375 55.90625 C 180.628906 54.960938 182.441406 54.105469 184.296875 53.335938 C 186.152344 52.566406 188.039062 51.890625 189.960938 51.308594 C 191.882812 50.726562 193.828125 50.238281 195.796875 49.847656 C 197.765625 49.457031 199.75 49.160156 201.746094 48.964844 C 203.746094 48.769531 205.746094 48.667969 207.753906 48.667969 C 209.761719 48.667969 211.765625 48.769531 213.765625 48.964844 C 215.761719 49.160156 217.746094 49.457031 219.714844 49.847656 C 221.683594 50.238281 223.628906 50.726562 225.550781 51.308594 C 227.472656 51.890625 229.359375 52.566406 231.214844 53.335938 C 233.070312 54.105469 234.882812 54.960938 236.652344 55.90625 C 238.421875 56.855469 240.140625 57.882812 241.8125 59 C 243.480469 60.117188 245.089844 61.308594 246.644531 62.582031 C 248.195312 63.855469 249.679688 65.203125 251.101562 66.625 C 252.519531 68.042969 253.867188 69.527344 255.140625 71.082031 C 256.414062 72.632812 257.609375 74.242188 258.722656 75.914062 C 259.839844 77.582031 260.871094 79.300781 261.816406 81.074219 C 262.761719 82.84375 263.621094 84.65625 264.390625 86.511719 C 265.15625 88.367188 265.832031 90.253906 266.414062 92.175781 C 267 94.09375 267.484375 96.039062 267.878906 98.011719 C 268.269531 99.980469 268.5625 101.960938 268.761719 103.960938 C 268.957031 105.957031 269.054688 107.960938 269.054688 109.96875 Z M 269.054688 109.96875 " fill-opacity="1" fill-rule="nonzero"/></g></svg>