<svg xmlns="http://www.w3.org/2000/svg" xmlns:xlink="http://www.w3.org/1999/xlink" width="554" zoomAndPan="magnify" viewBox="0 0 415.5 137.999998" height="184" preserveAspectRatio="xMidYMid meet" version="1.0"><defs><g/><clipPath id="fca9208fd7"><path d="M 1.714844 15.882812 L 413.824219 15.882812 L 413.824219 135.835938 L 1.714844 135.835938 Z M 1.714844 15.882812 " clip-rule="nonzero"/></clipPath><clipPath id="9caac40c09"><path d="M 1.722656 15.882812 L 413.71875 15.882812 L 413.71875 135.738281 L 1.722656 135.738281 Z M 1.722656 15.882812 " clip-rule="nonzero"/></clipPath><linearGradient x1="0.00000000412093" gradientTransform="matrix(3.948282, 0, 0, 3.948282, -0.0000000162706, 0.0000072788)" y1="20.278" x2="139.2988" gradientUnits="userSpaceOnUse" y2="20.278" id="79fbd967ab"><stop stop-opacity="1" stop-color="rgb(0%, 0%, 0%)" offset="0"/><stop stop-opacity="1" stop-color="rgb(0.387573%, 0.0778198%, 0.0167847%)" offset="0.00390625"/><stop stop-opacity="1" stop-color="rgb(0.776672%, 0.15564%, 0.0335693%)" offset="0.0078125"/><stop stop-opacity="1" stop-color="rgb(1.165771%, 0.233459%, 0.050354%)" offset="0.0117188"/><stop stop-opacity="1" stop-color="rgb(1.554871%, 0.311279%, 0.0671387%)" offset="0.015625"/><stop stop-opacity="1" stop-color="rgb(1.94397%, 0.389099%, 0.0839233%)" offset="0.0195313"/><stop stop-opacity="1" stop-color="rgb(2.333069%, 0.468445%, 0.100708%)" offset="0.0234375"/><stop stop-opacity="1" stop-color="rgb(2.722168%, 0.546265%, 0.117493%)" offset="0.0273438"/><stop stop-opacity="1" stop-color="rgb(3.111267%, 0.624084%, 0.134277%)" offset="0.03125"/><stop stop-opacity="1" stop-color="rgb(3.500366%, 0.701904%, 0.151062%)" offset="0.0351562"/><stop stop-opacity="1" stop-color="rgb(3.889465%, 0.779724%, 0.167847%)" offset="0.0390625"/><stop stop-opacity="1" stop-color="rgb(4.277039%, 0.857544%, 0.184631%)" offset="0.0429688"/><stop stop-opacity="1" stop-color="rgb(4.666138%, 0.93689%, 0.201416%)" offset="0.046875"/><stop stop-opacity="1" stop-color="rgb(5.055237%, 1.014709%, 0.218201%)" offset="0.0507812"/><stop stop-opacity="1" stop-color="rgb(5.444336%, 1.092529%, 0.234985%)" offset="0.0546875"/><stop stop-opacity="1" stop-color="rgb(5.833435%, 1.170349%, 0.25177%)" offset="0.0585938"/><stop stop-opacity="1" stop-color="rgb(6.222534%, 1.249695%, 0.268555%)" offset="0.0625"/><stop stop-opacity="1" stop-color="rgb(6.611633%, 1.327515%, 0.285339%)" offset="0.0664062"/><stop stop-opacity="1" stop-color="rgb(7.000732%, 1.405334%, 0.302124%)" offset="0.0703125"/><stop stop-opacity="1" stop-color="rgb(7.389832%, 1.483154%, 0.318909%)" offset="0.0742187"/><stop stop-opacity="1" stop-color="rgb(7.778931%, 1.560974%, 0.335693%)" offset="0.078125"/><stop stop-opacity="1" stop-color="rgb(8.16803%, 1.638794%, 0.352478%)" offset="0.0820312"/><stop stop-opacity="1" stop-color="rgb(8.557129%, 1.71814%, 0.369263%)" offset="0.0859375"/><stop stop-opacity="1" stop-color="rgb(8.944702%, 1.795959%, 0.386047%)" offset="0.0898438"/><stop stop-opacity="1" stop-color="rgb(9.333801%, 1.873779%, 0.402832%)" offset="0.09375"/><stop stop-opacity="1" stop-color="rgb(9.7229%, 1.951599%, 0.419617%)" offset="0.0976562"/><stop stop-opacity="1" stop-color="rgb(10.112%, 2.029419%, 0.436401%)" offset="0.101562"/><stop stop-opacity="1" stop-color="rgb(10.501099%, 2.107239%, 0.453186%)" offset="0.105469"/><stop stop-opacity="1" stop-color="rgb(10.890198%, 2.186584%, 0.469971%)" offset="0.109375"/><stop stop-opacity="1" stop-color="rgb(11.279297%, 2.264404%, 0.486755%)" offset="0.113281"/><stop stop-opacity="1" stop-color="rgb(11.668396%, 2.342224%, 0.50354%)" offset="0.117188"/><stop stop-opacity="1" stop-color="rgb(12.057495%, 2.420044%, 0.520325%)" offset="0.121094"/><stop stop-opacity="1" stop-color="rgb(12.446594%, 2.49939%, 0.537109%)" offset="0.125"/><stop stop-opacity="1" stop-color="rgb(12.835693%, 2.577209%, 0.553894%)" offset="0.128906"/><stop stop-opacity="1" stop-color="rgb(13.224792%, 2.655029%, 0.570679%)" offset="0.132812"/><stop stop-opacity="1" stop-color="rgb(13.612366%, 2.732849%, 0.587463%)" offset="0.136719"/><stop stop-opacity="1" stop-color="rgb(14.001465%, 2.810669%, 0.604248%)" offset="0.140625"/><stop stop-opacity="1" stop-color="rgb(14.390564%, 2.888489%, 0.621033%)" offset="0.144531"/><stop stop-opacity="1" stop-color="rgb(14.779663%, 2.967834%, 0.637817%)" offset="0.148438"/><stop stop-opacity="1" stop-color="rgb(15.168762%, 3.045654%, 0.654602%)" offset="0.152344"/><stop stop-opacity="1" stop-color="rgb(15.557861%, 3.123474%, 0.671387%)" offset="0.15625"/><stop stop-opacity="1" stop-color="rgb(15.94696%, 3.201294%, 0.688171%)" offset="0.160156"/><stop stop-opacity="1" stop-color="rgb(16.33606%, 3.279114%, 0.704956%)" offset="0.164062"/><stop stop-opacity="1" stop-color="rgb(16.725159%, 3.356934%, 0.721741%)" offset="0.167969"/><stop stop-opacity="1" stop-color="rgb(17.114258%, 3.436279%, 0.738525%)" offset="0.171875"/><stop stop-opacity="1" stop-color="rgb(17.503357%, 3.514099%, 0.75531%)" offset="0.175781"/><stop stop-opacity="1" stop-color="rgb(17.892456%, 3.591919%, 0.772095%)" offset="0.179687"/><stop stop-opacity="1" stop-color="rgb(18.280029%, 3.669739%, 0.788879%)" offset="0.183594"/><stop stop-opacity="1" stop-color="rgb(18.669128%, 3.749084%, 0.805664%)" offset="0.1875"/><stop stop-opacity="1" stop-color="rgb(19.058228%, 3.826904%, 0.822449%)" offset="0.191406"/><stop stop-opacity="1" stop-color="rgb(19.447327%, 3.904724%, 0.839233%)" offset="0.195312"/><stop stop-opacity="1" stop-color="rgb(19.836426%, 3.982544%, 0.856018%)" offset="0.199219"/><stop stop-opacity="1" stop-color="rgb(20.225525%, 4.060364%, 0.872803%)" offset="0.203125"/><stop stop-opacity="1" stop-color="rgb(20.614624%, 4.138184%, 0.889587%)" offset="0.207031"/><stop stop-opacity="1" stop-color="rgb(21.003723%, 4.217529%, 0.906372%)" offset="0.210938"/><stop stop-opacity="1" stop-color="rgb(21.392822%, 4.295349%, 0.923157%)" offset="0.214844"/><stop stop-opacity="1" stop-color="rgb(21.781921%, 4.373169%, 0.939941%)" offset="0.21875"/><stop stop-opacity="1" stop-color="rgb(22.171021%, 4.450989%, 0.956726%)" offset="0.222656"/><stop stop-opacity="1" stop-color="rgb(22.56012%, 4.528809%, 0.973511%)" offset="0.226562"/><stop stop-opacity="1" stop-color="rgb(22.947693%, 4.606628%, 0.990295%)" offset="0.230469"/><stop stop-opacity="1" stop-color="rgb(23.336792%, 4.685974%, 1.00708%)" offset="0.234375"/><stop stop-opacity="1" stop-color="rgb(23.725891%, 4.763794%, 1.023865%)" offset="0.238281"/><stop stop-opacity="1" stop-color="rgb(24.11499%, 4.841614%, 1.040649%)" offset="0.242188"/><stop stop-opacity="1" stop-color="rgb(24.504089%, 4.919434%, 1.057434%)" offset="0.246094"/><stop stop-opacity="1" stop-color="rgb(24.893188%, 4.998779%, 1.074219%)" offset="0.25"/><stop stop-opacity="1" stop-color="rgb(25.282288%, 5.076599%, 1.091003%)" offset="0.253906"/><stop stop-opacity="1" stop-color="rgb(25.671387%, 5.154419%, 1.107788%)" offset="0.257812"/><stop stop-opacity="1" stop-color="rgb(26.060486%, 5.232239%, 1.124573%)" offset="0.261719"/><stop stop-opacity="1" stop-color="rgb(26.449585%, 5.310059%, 1.141357%)" offset="0.265625"/><stop stop-opacity="1" stop-color="rgb(26.838684%, 5.387878%, 1.158142%)" offset="0.269531"/><stop stop-opacity="1" stop-color="rgb(27.227783%, 5.467224%, 1.174927%)" offset="0.273438"/><stop stop-opacity="1" stop-color="rgb(27.615356%, 5.545044%, 1.191711%)" offset="0.277344"/><stop stop-opacity="1" stop-color="rgb(28.004456%, 5.622864%, 1.208496%)" offset="0.28125"/><stop stop-opacity="1" stop-color="rgb(28.393555%, 5.700684%, 1.225281%)" offset="0.285156"/><stop stop-opacity="1" stop-color="rgb(28.782654%, 5.778503%, 1.242065%)" offset="0.289062"/><stop stop-opacity="1" stop-color="rgb(29.171753%, 5.856323%, 1.25885%)" offset="0.292969"/><stop stop-opacity="1" stop-color="rgb(29.560852%, 5.935669%, 1.275635%)" offset="0.296875"/><stop stop-opacity="1" stop-color="rgb(29.949951%, 6.013489%, 1.292419%)" offset="0.300781"/><stop stop-opacity="1" stop-color="rgb(30.33905%, 6.091309%, 1.309204%)" offset="0.304688"/><stop stop-opacity="1" stop-color="rgb(30.728149%, 6.169128%, 1.325989%)" offset="0.308594"/><stop stop-opacity="1" stop-color="rgb(31.117249%, 6.248474%, 1.342773%)" offset="0.3125"/><stop stop-opacity="1" stop-color="rgb(31.506348%, 6.326294%, 1.359558%)" offset="0.316406"/><stop stop-opacity="1" stop-color="rgb(31.895447%, 6.404114%, 1.376343%)" offset="0.320313"/><stop stop-opacity="1" stop-color="rgb(32.28302%, 6.481934%, 1.393127%)" offset="0.324219"/><stop stop-opacity="1" stop-color="rgb(32.672119%, 6.559753%, 1.409912%)" offset="0.328125"/><stop stop-opacity="1" stop-color="rgb(33.061218%, 6.637573%, 1.426697%)" offset="0.332031"/><stop stop-opacity="1" stop-color="rgb(33.450317%, 6.716919%, 1.443481%)" offset="0.335938"/><stop stop-opacity="1" stop-color="rgb(33.839417%, 6.794739%, 1.460266%)" offset="0.339844"/><stop stop-opacity="1" stop-color="rgb(34.228516%, 6.872559%, 1.477051%)" offset="0.34375"/><stop stop-opacity="1" stop-color="rgb(34.617615%, 6.950378%, 1.493835%)" offset="0.347656"/><stop stop-opacity="1" stop-color="rgb(35.006714%, 7.028198%, 1.51062%)" offset="0.351563"/><stop stop-opacity="1" stop-color="rgb(35.395813%, 7.106018%, 1.527405%)" offset="0.355469"/><stop stop-opacity="1" stop-color="rgb(35.784912%, 7.185364%, 1.544189%)" offset="0.359375"/><stop stop-opacity="1" stop-color="rgb(36.174011%, 7.263184%, 1.560974%)" offset="0.363281"/><stop stop-opacity="1" stop-color="rgb(36.56311%, 7.341003%, 1.577759%)" offset="0.367188"/><stop stop-opacity="1" stop-color="rgb(36.950684%, 7.418823%, 1.594543%)" offset="0.371094"/><stop stop-opacity="1" stop-color="rgb(37.339783%, 7.498169%, 1.611328%)" offset="0.375"/><stop stop-opacity="1" stop-color="rgb(37.728882%, 7.575989%, 1.628113%)" offset="0.378906"/><stop stop-opacity="1" stop-color="rgb(38.117981%, 7.653809%, 1.644897%)" offset="0.382812"/><stop stop-opacity="1" stop-color="rgb(38.50708%, 7.731628%, 1.661682%)" offset="0.386719"/><stop stop-opacity="1" stop-color="rgb(38.896179%, 7.809448%, 1.678467%)" offset="0.390625"/><stop stop-opacity="1" stop-color="rgb(39.285278%, 7.887268%, 1.695251%)" offset="0.394531"/><stop stop-opacity="1" stop-color="rgb(39.674377%, 7.966614%, 1.712036%)" offset="0.398438"/><stop stop-opacity="1" stop-color="rgb(40.063477%, 8.044434%, 1.728821%)" offset="0.402344"/><stop stop-opacity="1" stop-color="rgb(40.452576%, 8.122253%, 1.745605%)" offset="0.40625"/><stop stop-opacity="1" stop-color="rgb(40.841675%, 8.200073%, 1.76239%)" offset="0.410156"/><stop stop-opacity="1" stop-color="rgb(41.230774%, 8.277893%, 1.779175%)" offset="0.414062"/><stop stop-opacity="1" stop-color="rgb(41.618347%, 8.355713%, 1.795959%)" offset="0.417969"/><stop stop-opacity="1" stop-color="rgb(42.007446%, 8.435059%, 1.812744%)" offset="0.421875"/><stop stop-opacity="1" stop-color="rgb(42.396545%, 8.512878%, 1.829529%)" offset="0.425781"/><stop stop-opacity="1" stop-color="rgb(42.785645%, 8.590698%, 1.846313%)" offset="0.429688"/><stop stop-opacity="1" stop-color="rgb(43.174744%, 8.668518%, 1.863098%)" offset="0.433594"/><stop stop-opacity="1" stop-color="rgb(43.563843%, 8.747864%, 1.879883%)" offset="0.4375"/><stop stop-opacity="1" stop-color="rgb(43.952942%, 8.825684%, 1.896667%)" offset="0.441406"/><stop stop-opacity="1" stop-color="rgb(44.342041%, 8.903503%, 1.913452%)" offset="0.445313"/><stop stop-opacity="1" stop-color="rgb(44.73114%, 8.981323%, 1.930237%)" offset="0.449219"/><stop stop-opacity="1" stop-color="rgb(45.120239%, 9.059143%, 1.947021%)" offset="0.453125"/><stop stop-opacity="1" stop-color="rgb(45.507812%, 9.136963%, 1.963806%)" offset="0.457031"/><stop stop-opacity="1" stop-color="rgb(45.896912%, 9.216309%, 1.980591%)" offset="0.460938"/><stop stop-opacity="1" stop-color="rgb(46.286011%, 9.294128%, 1.997375%)" offset="0.464844"/><stop stop-opacity="1" stop-color="rgb(46.67511%, 9.371948%, 2.01416%)" offset="0.46875"/><stop stop-opacity="1" stop-color="rgb(47.064209%, 9.449768%, 2.030945%)" offset="0.472656"/><stop stop-opacity="1" stop-color="rgb(47.453308%, 9.527588%, 2.047729%)" offset="0.476563"/><stop stop-opacity="1" stop-color="rgb(47.842407%, 9.605408%, 2.064514%)" offset="0.480469"/><stop stop-opacity="1" stop-color="rgb(48.231506%, 9.684753%, 2.081299%)" offset="0.484375"/><stop stop-opacity="1" stop-color="rgb(48.620605%, 9.762573%, 2.098083%)" offset="0.488281"/><stop stop-opacity="1" stop-color="rgb(49.009705%, 9.840393%, 2.114868%)" offset="0.492188"/><stop stop-opacity="1" stop-color="rgb(49.398804%, 9.918213%, 2.131653%)" offset="0.496094"/><stop stop-opacity="1" stop-color="rgb(49.787903%, 9.997559%, 2.148438%)" offset="0.5"/><stop stop-opacity="1" stop-color="rgb(50.175476%, 10.075378%, 2.165222%)" offset="0.503906"/><stop stop-opacity="1" stop-color="rgb(50.564575%, 10.153198%, 2.182007%)" offset="0.507812"/><stop stop-opacity="1" stop-color="rgb(50.953674%, 10.231018%, 2.198792%)" offset="0.511719"/><stop stop-opacity="1" stop-color="rgb(51.342773%, 10.308838%, 2.215576%)" offset="0.515625"/><stop stop-opacity="1" stop-color="rgb(51.731873%, 10.386658%, 2.232361%)" offset="0.519531"/><stop stop-opacity="1" stop-color="rgb(52.120972%, 10.466003%, 2.249146%)" offset="0.523438"/><stop stop-opacity="1" stop-color="rgb(52.510071%, 10.543823%, 2.26593%)" offset="0.527344"/><stop stop-opacity="1" stop-color="rgb(52.89917%, 10.621643%, 2.282715%)" offset="0.53125"/><stop stop-opacity="1" stop-color="rgb(53.288269%, 10.699463%, 2.2995%)" offset="0.535156"/><stop stop-opacity="1" stop-color="rgb(53.677368%, 10.777283%, 2.316284%)" offset="0.539062"/><stop stop-opacity="1" stop-color="rgb(54.066467%, 10.855103%, 2.333069%)" offset="0.542969"/><stop stop-opacity="1" stop-color="rgb(54.455566%, 10.934448%, 2.349854%)" offset="0.546875"/><stop stop-opacity="1" stop-color="rgb(54.84314%, 11.012268%, 2.366638%)" offset="0.550781"/><stop stop-opacity="1" stop-color="rgb(55.232239%, 11.090088%, 2.383423%)" offset="0.554688"/><stop stop-opacity="1" stop-color="rgb(55.621338%, 11.167908%, 2.400208%)" offset="0.558594"/><stop stop-opacity="1" stop-color="rgb(56.010437%, 11.247253%, 2.416992%)" offset="0.5625"/><stop stop-opacity="1" stop-color="rgb(56.399536%, 11.325073%, 2.433777%)" offset="0.566406"/><stop stop-opacity="1" stop-color="rgb(56.788635%, 11.402893%, 2.450562%)" offset="0.570312"/><stop stop-opacity="1" stop-color="rgb(57.177734%, 11.480713%, 2.467346%)" offset="0.574219"/><stop stop-opacity="1" stop-color="rgb(57.566833%, 11.558533%, 2.484131%)" offset="0.578125"/><stop stop-opacity="1" stop-color="rgb(57.955933%, 11.636353%, 2.500916%)" offset="0.582031"/><stop stop-opacity="1" stop-color="rgb(58.345032%, 11.715698%, 2.5177%)" offset="0.585937"/><stop stop-opacity="1" stop-color="rgb(58.734131%, 11.793518%, 2.534485%)" offset="0.589844"/><stop stop-opacity="1" stop-color="rgb(59.12323%, 11.871338%, 2.55127%)" offset="0.59375"/><stop stop-opacity="1" stop-color="rgb(59.510803%, 11.949158%, 2.568054%)" offset="0.597656"/><stop stop-opacity="1" stop-color="rgb(59.899902%, 12.026978%, 2.584839%)" offset="0.601562"/><stop stop-opacity="1" stop-color="rgb(60.289001%, 12.104797%, 2.601624%)" offset="0.605469"/><stop stop-opacity="1" stop-color="rgb(60.678101%, 12.184143%, 2.618408%)" offset="0.609375"/><stop stop-opacity="1" stop-color="rgb(61.0672%, 12.261963%, 2.635193%)" offset="0.613281"/><stop stop-opacity="1" stop-color="rgb(61.456299%, 12.339783%, 2.651978%)" offset="0.617188"/><stop stop-opacity="1" stop-color="rgb(61.845398%, 12.417603%, 2.668762%)" offset="0.621094"/><stop stop-opacity="1" stop-color="rgb(62.234497%, 12.496948%, 2.685547%)" offset="0.625"/><stop stop-opacity="1" stop-color="rgb(62.623596%, 12.574768%, 2.702332%)" offset="0.628906"/><stop stop-opacity="1" stop-color="rgb(63.012695%, 12.652588%, 2.719116%)" offset="0.632812"/><stop stop-opacity="1" stop-color="rgb(63.401794%, 12.730408%, 2.735901%)" offset="0.636719"/><stop stop-opacity="1" stop-color="rgb(63.790894%, 12.808228%, 2.752686%)" offset="0.640625"/><stop stop-opacity="1" stop-color="rgb(64.178467%, 12.886047%, 2.76947%)" offset="0.644531"/><stop stop-opacity="1" stop-color="rgb(64.567566%, 12.965393%, 2.786255%)" offset="0.648438"/><stop stop-opacity="1" stop-color="rgb(64.956665%, 13.043213%, 2.80304%)" offset="0.652344"/><stop stop-opacity="1" stop-color="rgb(65.345764%, 13.121033%, 2.819824%)" offset="0.65625"/><stop stop-opacity="1" stop-color="rgb(65.734863%, 13.198853%, 2.836609%)" offset="0.660156"/><stop stop-opacity="1" stop-color="rgb(66.123962%, 13.276672%, 2.853394%)" offset="0.664062"/><stop stop-opacity="1" stop-color="rgb(66.513062%, 13.354492%, 2.870178%)" offset="0.667969"/><stop stop-opacity="1" stop-color="rgb(66.902161%, 13.433838%, 2.886963%)" offset="0.671875"/><stop stop-opacity="1" stop-color="rgb(67.29126%, 13.511658%, 2.903748%)" offset="0.675781"/><stop stop-opacity="1" stop-color="rgb(67.680359%, 13.589478%, 2.920532%)" offset="0.679688"/><stop stop-opacity="1" stop-color="rgb(68.069458%, 13.667297%, 2.937317%)" offset="0.683594"/><stop stop-opacity="1" stop-color="rgb(68.458557%, 13.746643%, 2.954102%)" offset="0.6875"/><stop stop-opacity="1" stop-color="rgb(68.84613%, 13.824463%, 2.970886%)" offset="0.691406"/><stop stop-opacity="1" stop-color="rgb(69.235229%, 13.902283%, 2.987671%)" offset="0.695312"/><stop stop-opacity="1" stop-color="rgb(69.624329%, 13.980103%, 3.004456%)" offset="0.699219"/><stop stop-opacity="1" stop-color="rgb(70.013428%, 14.057922%, 3.02124%)" offset="0.703125"/><stop stop-opacity="1" stop-color="rgb(70.402527%, 14.135742%, 3.038025%)" offset="0.707031"/><stop stop-opacity="1" stop-color="rgb(70.791626%, 14.215088%, 3.05481%)" offset="0.710938"/><stop stop-opacity="1" stop-color="rgb(71.180725%, 14.292908%, 3.071594%)" offset="0.714844"/><stop stop-opacity="1" stop-color="rgb(71.569824%, 14.370728%, 3.088379%)" offset="0.71875"/><stop stop-opacity="1" stop-color="rgb(71.958923%, 14.448547%, 3.105164%)" offset="0.722656"/><stop stop-opacity="1" stop-color="rgb(72.348022%, 14.526367%, 3.123474%)" offset="0.726563"/><stop stop-opacity="1" stop-color="rgb(72.737122%, 14.604187%, 3.140259%)" offset="0.730469"/><stop stop-opacity="1" stop-color="rgb(73.126221%, 14.683533%, 3.157043%)" offset="0.734375"/><stop stop-opacity="1" stop-color="rgb(73.513794%, 14.761353%, 3.173828%)" offset="0.738281"/><stop stop-opacity="1" stop-color="rgb(73.902893%, 14.839172%, 3.190613%)" offset="0.742188"/><stop stop-opacity="1" stop-color="rgb(74.291992%, 14.916992%, 3.207397%)" offset="0.746094"/><stop stop-opacity="1" stop-color="rgb(74.681091%, 14.996338%, 3.224182%)" offset="0.75"/><stop stop-opacity="1" stop-color="rgb(75.07019%, 15.074158%, 3.240967%)" offset="0.753906"/><stop stop-opacity="1" stop-color="rgb(75.45929%, 15.151978%, 3.257751%)" offset="0.757812"/><stop stop-opacity="1" stop-color="rgb(75.848389%, 15.229797%, 3.274536%)" offset="0.761719"/><stop stop-opacity="1" stop-color="rgb(76.237488%, 15.307617%, 3.291321%)" offset="0.765625"/><stop stop-opacity="1" stop-color="rgb(76.626587%, 15.385437%, 3.308105%)" offset="0.769531"/><stop stop-opacity="1" stop-color="rgb(77.015686%, 15.464783%, 3.32489%)" offset="0.773437"/><stop stop-opacity="1" stop-color="rgb(77.404785%, 15.542603%, 3.341675%)" offset="0.777344"/><stop stop-opacity="1" stop-color="rgb(77.793884%, 15.620422%, 3.358459%)" offset="0.78125"/><stop stop-opacity="1" stop-color="rgb(78.181458%, 15.698242%, 3.375244%)" offset="0.785156"/><stop stop-opacity="1" stop-color="rgb(78.570557%, 15.776062%, 3.392029%)" offset="0.789062"/><stop stop-opacity="1" stop-color="rgb(78.959656%, 15.853882%, 3.408813%)" offset="0.792969"/><stop stop-opacity="1" stop-color="rgb(79.348755%, 15.933228%, 3.425598%)" offset="0.796875"/><stop stop-opacity="1" stop-color="rgb(79.737854%, 16.011047%, 3.442383%)" offset="0.800781"/><stop stop-opacity="1" stop-color="rgb(80.126953%, 16.088867%, 3.459167%)" offset="0.804687"/><stop stop-opacity="1" stop-color="rgb(80.516052%, 16.166687%, 3.475952%)" offset="0.808594"/><stop stop-opacity="1" stop-color="rgb(80.905151%, 16.246033%, 3.492737%)" offset="0.8125"/><stop stop-opacity="1" stop-color="rgb(81.29425%, 16.323853%, 3.509521%)" offset="0.816406"/><stop stop-opacity="1" stop-color="rgb(81.68335%, 16.401672%, 3.526306%)" offset="0.820312"/><stop stop-opacity="1" stop-color="rgb(82.072449%, 16.479492%, 3.543091%)" offset="0.824219"/><stop stop-opacity="1" stop-color="rgb(82.461548%, 16.557312%, 3.559875%)" offset="0.828125"/><stop stop-opacity="1" stop-color="rgb(82.849121%, 16.635132%, 3.57666%)" offset="0.832031"/><stop stop-opacity="1" stop-color="rgb(83.23822%, 16.714478%, 3.593445%)" offset="0.835938"/><stop stop-opacity="1" stop-color="rgb(83.627319%, 16.792297%, 3.610229%)" offset="0.839844"/><stop stop-opacity="1" stop-color="rgb(84.016418%, 16.870117%, 3.627014%)" offset="0.84375"/><stop stop-opacity="1" stop-color="rgb(84.405518%, 16.947937%, 3.643799%)" offset="0.847656"/><stop stop-opacity="1" stop-color="rgb(84.794617%, 17.025757%, 3.660583%)" offset="0.851562"/><stop stop-opacity="1" stop-color="rgb(85.183716%, 17.103577%, 3.677368%)" offset="0.855469"/><stop stop-opacity="1" stop-color="rgb(85.572815%, 17.182922%, 3.694153%)" offset="0.859375"/><stop stop-opacity="1" stop-color="rgb(85.961914%, 17.260742%, 3.710938%)" offset="0.863281"/><stop stop-opacity="1" stop-color="rgb(86.351013%, 17.338562%, 3.727722%)" offset="0.867188"/><stop stop-opacity="1" stop-color="rgb(86.740112%, 17.416382%, 3.744507%)" offset="0.871094"/><stop stop-opacity="1" stop-color="rgb(87.129211%, 17.495728%, 3.761292%)" offset="0.875"/><stop stop-opacity="1" stop-color="rgb(87.516785%, 17.573547%, 3.778076%)" offset="0.878906"/><stop stop-opacity="1" stop-color="rgb(87.905884%, 17.651367%, 3.794861%)" offset="0.882812"/><stop stop-opacity="1" stop-color="rgb(88.294983%, 17.729187%, 3.811646%)" offset="0.886719"/><stop stop-opacity="1" stop-color="rgb(88.684082%, 17.807007%, 3.82843%)" offset="0.890625"/><stop stop-opacity="1" stop-color="rgb(89.073181%, 17.884827%, 3.845215%)" offset="0.894531"/><stop stop-opacity="1" stop-color="rgb(89.46228%, 17.964172%, 3.862%)" offset="0.898438"/><stop stop-opacity="1" stop-color="rgb(89.851379%, 18.041992%, 3.878784%)" offset="0.902344"/><stop stop-opacity="1" stop-color="rgb(90.240479%, 18.119812%, 3.895569%)" offset="0.90625"/><stop stop-opacity="1" stop-color="rgb(90.629578%, 18.197632%, 3.912354%)" offset="0.910156"/><stop stop-opacity="1" stop-color="rgb(91.018677%, 18.275452%, 3.929138%)" offset="0.914062"/><stop stop-opacity="1" stop-color="rgb(91.40625%, 18.353271%, 3.945923%)" offset="0.917969"/><stop stop-opacity="1" stop-color="rgb(91.795349%, 18.432617%, 3.962708%)" offset="0.921875"/><stop stop-opacity="1" stop-color="rgb(92.184448%, 18.510437%, 3.979492%)" offset="0.925781"/><stop stop-opacity="1" stop-color="rgb(92.573547%, 18.588257%, 3.996277%)" offset="0.929688"/><stop stop-opacity="1" stop-color="rgb(92.962646%, 18.666077%, 4.013062%)" offset="0.933594"/><stop stop-opacity="1" stop-color="rgb(93.351746%, 18.745422%, 4.029846%)" offset="0.9375"/><stop stop-opacity="1" stop-color="rgb(93.740845%, 18.823242%, 4.046631%)" offset="0.941406"/><stop stop-opacity="1" stop-color="rgb(94.129944%, 18.901062%, 4.063416%)" offset="0.945313"/><stop stop-opacity="1" stop-color="rgb(94.519043%, 18.978882%, 4.0802%)" offset="0.949219"/><stop stop-opacity="1" stop-color="rgb(94.908142%, 19.056702%, 4.096985%)" offset="0.953125"/><stop stop-opacity="1" stop-color="rgb(95.297241%, 19.134521%, 4.11377%)" offset="0.957031"/><stop stop-opacity="1" stop-color="rgb(95.68634%, 19.213867%, 4.130554%)" offset="0.960938"/><stop stop-opacity="1" stop-color="rgb(96.073914%, 19.291687%, 4.147339%)" offset="0.964844"/><stop stop-opacity="1" stop-color="rgb(96.463013%, 19.369507%, 4.164124%)" offset="0.96875"/><stop stop-opacity="1" stop-color="rgb(96.852112%, 19.447327%, 4.180908%)" offset="0.972656"/><stop stop-opacity="1" stop-color="rgb(97.241211%, 19.525146%, 4.197693%)" offset="0.976563"/><stop stop-opacity="1" stop-color="rgb(97.63031%, 19.602966%, 4.214478%)" offset="0.980469"/><stop stop-opacity="1" stop-color="rgb(98.019409%, 19.682312%, 4.231262%)" offset="0.984375"/><stop stop-opacity="1" stop-color="rgb(98.408508%, 19.760132%, 4.248047%)" offset="0.988281"/><stop stop-opacity="1" stop-color="rgb(98.797607%, 19.837952%, 4.264832%)" offset="0.992188"/><stop stop-opacity="1" stop-color="rgb(99.186707%, 19.915771%, 4.281616%)" offset="0.996094"/><stop stop-opacity="1" stop-color="rgb(99.575806%, 19.995117%, 4.298401%)" offset="1"/></linearGradient></defs><g clip-path="url(#fca9208fd7)"><path fill="#e5e5e0" d="M 1.714844 15.882812 L 414.054688 15.882812 L 414.054688 135.835938 L 1.714844 135.835938 Z M 1.714844 15.882812 " fill-opacity="1" fill-rule="nonzero"/></g><g clip-path="url(#9caac40c09)"><path stroke-linecap="butt" transform="matrix(0.749098, 0, 0, 0.749098, 1.721058, 15.882381)" fill="none" stroke-linejoin="miter" d="M 0.00213297 0.000575481 L 550.121726 0.000575481 L 550.121726 160.125342 L 0.00213297 160.125342 Z M 0.00213297 0.000575481 " stroke="url(#79fbd967ab)" stroke-width="8" stroke-miterlimit="4"/></g><g fill="#292929" fill-opacity="1"><g transform="translate(16.119074, 82.052673)"><g><path d="M 37.816406 -20.75 L 37.816406 -13.015625 L 19.957031 -13.015625 L 19.957031 -50.542969 L 6.867188 -50.542969 L 6.867188 -13.015625 L 1.808594 -13.015625 L 1.808594 0 L 50.832031 0 L 50.832031 -20.75 Z M 37.816406 -20.75 "/></g></g></g><g fill="#292929" fill-opacity="1"><g transform="translate(70.62716, 82.052673)"><g><path d="M 52.640625 -37.527344 L 52.640625 -50.542969 L 3.617188 -50.542969 L 3.617188 -37.527344 L 16.628906 -37.527344 L 16.628906 -31.742188 L 3.617188 -31.742188 L 3.617188 0 L 52.640625 0 L 52.640625 -13.015625 L 16.628906 -13.015625 L 16.628906 -18.726562 L 52.640625 -18.726562 L 52.640625 -31.742188 L 29.644531 -31.742188 L 29.644531 -37.527344 Z M 52.640625 -37.527344 "/></g></g></g><g fill="#292929" fill-opacity="1"><g transform="translate(126.942543, 82.052673)"><g><path d="M 29.644531 -58.785156 L 16.628906 -58.785156 L 16.628906 -50.542969 L 3.617188 -50.542969 L 3.617188 0 L 16.628906 0 L 16.628906 -12.582031 L 29.644531 -12.582031 L 29.644531 0 L 42.660156 0 L 42.660156 -50.542969 L 29.644531 -50.542969 Z M 16.628906 -37.527344 L 29.644531 -37.527344 L 29.644531 -25.667969 L 16.628906 -25.667969 Z M 16.628906 -37.527344 "/></g></g></g><g fill="#292929" fill-opacity="1"><g transform="translate(173.209354, 82.052673)"><g><path d="M 29.644531 -50.542969 L 29.644531 -40.058594 L 16.628906 -50.542969 L 3.617188 -50.542969 L 3.617188 0 L 16.628906 0 L 16.628906 -34.996094 L 29.644531 -24.511719 L 29.644531 0 L 42.660156 0 L 42.660156 -50.542969 Z M 29.644531 -50.542969 "/></g></g></g><g fill="#292929" fill-opacity="1"><g transform="translate(219.476165, 82.052673)"><g><path d="M 47.289062 -50.542969 L 3.617188 -50.542969 L 3.617188 -37.527344 L 9.976562 -37.527344 L 9.976562 -20.679688 L 23.066406 -20.679688 L 23.066406 -37.527344 L 38.683594 -37.527344 L 47.070312 -13.015625 L 3.617188 -13.015625 L 3.617188 0 L 60.085938 0 L 60.085938 -13.015625 Z M 47.289062 -50.542969 "/></g></g></g><g fill="#292929" fill-opacity="1"><g transform="translate(281.430316, 82.052673)"><g><path d="M 45.410156 -15.835938 L 56.253906 -15.835938 L 56.253906 -50.613281 L 35.71875 -50.613281 L 35.71875 -58.785156 L 22.703125 -58.785156 L 22.703125 -50.613281 L 3.617188 -50.613281 L 3.617188 -15.835938 L 9.6875 -15.835938 L 9.6875 0 L 22.703125 0 L 22.703125 -15.835938 L 31.960938 -15.835938 C 36.007812 1.15625 46.566406 13.085938 59.292969 13.085938 L 59.292969 0.0742188 C 54.085938 0.0742188 48.445312 -6.074219 45.410156 -15.835938 Z M 16.628906 -37.597656 L 43.238281 -37.597656 L 43.238281 -28.851562 L 16.628906 -28.851562 Z M 16.628906 -37.597656 "/></g></g></g><g fill="#292929" fill-opacity="1"><g transform="translate(340.781962, 82.052673)"><g><path d="M 54.300781 -32.828125 L 54.300781 -50.542969 L 41.285156 -50.542969 L 41.285156 -45.335938 L 16.628906 -45.335938 L 16.628906 -50.542969 L 3.617188 -50.542969 L 3.617188 0 L 16.628906 0 L 16.628906 -5.132812 L 41.285156 -5.132812 L 41.285156 0 L 54.300781 0 Z M 41.285156 -17.570312 L 16.628906 -17.570312 L 16.628906 -32.828125 L 41.285156 -32.828125 Z M 41.285156 -17.570312 "/></g></g></g><g fill="#292929" fill-opacity="1"><g transform="translate(83.529142, 120.672625)"><g><path d="M 21.671875 -8.6875 L 21.671875 -6.765625 L 1.265625 -6.765625 L 1.265625 -8.6875 Z M 21.671875 -8.6875 "/></g></g></g><g fill="#292929" fill-opacity="1"><g transform="translate(118.187171, 120.672625)"><g><path d="M 8.90625 0 L 0.40625 -20.515625 L 3.671875 -20.515625 L 10.59375 -3.875 L 17.5 -20.515625 L 20.78125 -20.515625 L 12.265625 0 Z M 8.90625 0 "/></g></g></g><g fill="#292929" fill-opacity="1"><g transform="translate(151.080739, 120.672625)"><g><path d="M 3.625 0 L 0.3125 0 L 8.859375 -20.515625 L 12.1875 -20.515625 L 20.71875 0 L 17.453125 0 L 14.765625 -6.421875 L 6.28125 -6.421875 Z M 7.4375 -9.203125 L 13.59375 -9.203125 L 10.53125 -16.609375 Z M 7.4375 -9.203125 "/></g></g></g><g fill="#292929" fill-opacity="1"><g transform="translate(183.974306, 120.672625)"><g><path d="M 18.546875 0 L 14.765625 0 L 8.3125 -8.859375 L 4.71875 -8.859375 L 4.71875 0 L 1.671875 0 L 1.671875 -20.515625 L 10.015625 -20.515625 C 10.828125 -20.515625 11.59375 -20.359375 12.3125 -20.046875 C 13.03125 -19.742188 13.65625 -19.332031 14.1875 -18.8125 C 14.71875 -18.289062 15.140625 -17.675781 15.453125 -16.96875 C 15.765625 -16.269531 15.921875 -15.515625 15.921875 -14.703125 C 15.921875 -14.023438 15.8125 -13.382812 15.59375 -12.78125 C 15.382812 -12.1875 15.09375 -11.648438 14.71875 -11.171875 C 14.34375 -10.691406 13.894531 -10.269531 13.375 -9.90625 C 12.851562 -9.550781 12.28125 -9.285156 11.65625 -9.109375 Z M 10.015625 -11.6875 C 10.421875 -11.6875 10.804688 -11.769531 11.171875 -11.9375 C 11.535156 -12.101562 11.847656 -12.320312 12.109375 -12.59375 C 12.367188 -12.863281 12.578125 -13.1875 12.734375 -13.5625 C 12.890625 -13.9375 12.96875 -14.335938 12.96875 -14.765625 C 12.96875 -15.179688 12.890625 -15.570312 12.734375 -15.9375 C 12.578125 -16.3125 12.367188 -16.632812 12.109375 -16.90625 C 11.847656 -17.1875 11.535156 -17.410156 11.171875 -17.578125 C 10.804688 -17.742188 10.421875 -17.828125 10.015625 -17.828125 L 4.71875 -17.828125 L 4.71875 -11.65625 Z M 10.015625 -11.6875 "/></g></g></g><g fill="#292929" fill-opacity="1"><g transform="translate(214.669542, 120.672625)"><g><path d="M 13.078125 -10.96875 L 18.671875 -10.96875 L 18.671875 -3.4375 C 17.742188 -2.34375 16.625 -1.445312 15.3125 -0.75 C 14 -0.0507812 12.570312 0.296875 11.03125 0.296875 C 9.632812 0.296875 8.316406 0.015625 7.078125 -0.546875 C 5.847656 -1.109375 4.78125 -1.863281 3.875 -2.8125 C 2.96875 -3.769531 2.25 -4.882812 1.71875 -6.15625 C 1.1875 -7.4375 0.921875 -8.800781 0.921875 -10.25 C 0.921875 -11.675781 1.1875 -13.03125 1.71875 -14.3125 C 2.25 -15.59375 2.96875 -16.707031 3.875 -17.65625 C 4.78125 -18.613281 5.847656 -19.375 7.078125 -19.9375 C 8.316406 -20.5 9.632812 -20.78125 11.03125 -20.78125 C 12.300781 -20.78125 13.503906 -20.523438 14.640625 -20.015625 C 15.773438 -19.515625 16.796875 -18.863281 17.703125 -18.0625 L 15.921875 -15.765625 C 15.273438 -16.441406 14.53125 -16.988281 13.6875 -17.40625 C 12.851562 -17.820312 11.96875 -18.03125 11.03125 -18.03125 C 10.039062 -18.03125 9.113281 -17.820312 8.25 -17.40625 C 7.394531 -16.988281 6.648438 -16.421875 6.015625 -15.703125 C 5.378906 -14.992188 4.878906 -14.171875 4.515625 -13.234375 C 4.148438 -12.296875 3.96875 -11.300781 3.96875 -10.25 C 3.96875 -9.1875 4.148438 -8.1875 4.515625 -7.25 C 4.878906 -6.3125 5.378906 -5.488281 6.015625 -4.78125 C 6.648438 -4.082031 7.394531 -3.53125 8.25 -3.125 C 9.113281 -2.71875 10.039062 -2.515625 11.03125 -2.515625 C 11.9375 -2.515625 12.785156 -2.691406 13.578125 -3.046875 C 14.367188 -3.410156 15.070312 -3.890625 15.6875 -4.484375 L 15.6875 -8.15625 L 13.078125 -8.15625 Z M 13.078125 -10.96875 "/></g></g></g><g fill="#292929" fill-opacity="1"><g transform="translate(246.926749, 120.672625)"><g><path d="M 3.625 0 L 0.3125 0 L 8.859375 -20.515625 L 12.1875 -20.515625 L 20.71875 0 L 17.453125 0 L 14.765625 -6.421875 L 6.28125 -6.421875 Z M 7.4375 -9.203125 L 13.59375 -9.203125 L 10.53125 -16.609375 Z M 7.4375 -9.203125 "/></g></g></g><g fill="#292929" fill-opacity="1"><g transform="translate(279.82032, 120.672625)"><g><path d="M 15.3125 -5.765625 C 15.3125 -4.890625 15.132812 -4.082031 14.78125 -3.34375 C 14.4375 -2.601562 13.925781 -1.953125 13.25 -1.390625 C 11.914062 -0.265625 10.207031 0.296875 8.125 0.296875 C 6.507812 0.296875 5.046875 -0.0351562 3.734375 -0.703125 C 2.421875 -1.367188 1.457031 -2.265625 0.84375 -3.390625 L 3.421875 -4.71875 C 3.804688 -4.019531 4.414062 -3.484375 5.25 -3.109375 C 6.09375 -2.734375 7.050781 -2.546875 8.125 -2.546875 C 10.925781 -2.546875 12.328125 -3.617188 12.328125 -5.765625 C 12.328125 -6.160156 12.253906 -6.503906 12.109375 -6.796875 C 11.960938 -7.085938 11.742188 -7.359375 11.453125 -7.609375 C 10.765625 -8.191406 9.519531 -8.710938 7.71875 -9.171875 C 6.644531 -9.441406 5.726562 -9.738281 4.96875 -10.0625 C 4.21875 -10.394531 3.59375 -10.785156 3.09375 -11.234375 C 1.875 -12.210938 1.265625 -13.515625 1.265625 -15.140625 C 1.265625 -15.941406 1.425781 -16.695312 1.75 -17.40625 C 2.070312 -18.113281 2.519531 -18.726562 3.09375 -19.25 C 3.695312 -19.769531 4.394531 -20.160156 5.1875 -20.421875 C 5.988281 -20.679688 6.875 -20.8125 7.84375 -20.8125 C 9.25 -20.8125 10.546875 -20.539062 11.734375 -20 C 12.921875 -19.457031 13.820312 -18.691406 14.4375 -17.703125 L 12.09375 -16.265625 C 11.53125 -16.941406 10.882812 -17.414062 10.15625 -17.6875 C 9.425781 -17.96875 8.65625 -18.109375 7.84375 -18.109375 C 7.257812 -18.109375 6.726562 -18.007812 6.25 -17.8125 C 5.769531 -17.625 5.363281 -17.394531 5.03125 -17.125 C 4.757812 -16.894531 4.5625 -16.609375 4.4375 -16.265625 C 4.3125 -15.929688 4.25 -15.570312 4.25 -15.1875 C 4.25 -14.9375 4.285156 -14.679688 4.359375 -14.421875 C 4.441406 -14.160156 4.628906 -13.890625 4.921875 -13.609375 C 5.210938 -13.335938 5.632812 -13.070312 6.1875 -12.8125 C 6.75 -12.550781 7.515625 -12.289062 8.484375 -12.03125 C 9.640625 -11.75 10.613281 -11.4375 11.40625 -11.09375 C 12.195312 -10.757812 12.859375 -10.359375 13.390625 -9.890625 C 14.671875 -8.847656 15.3125 -7.472656 15.3125 -5.765625 Z M 15.3125 -5.765625 "/></g></g></g><g fill="#292929" fill-opacity="1"><g transform="translate(308.317221, 120.672625)"><g><path d="M 21.671875 -8.6875 L 21.671875 -6.765625 L 1.265625 -6.765625 L 1.265625 -8.6875 Z M 21.671875 -8.6875 "/></g></g></g></svg>