<svg width="45" height="45" viewBox="0 0 45 45" fill="none" xmlns="http://www.w3.org/2000/svg">
<g clip-path="url(#clip0_5343_512)">
<path d="M22.5571 45C21.8475 45 21.2476 44.4861 21.0757 43.7976C20.5279 41.6032 19.4792 39.2695 17.9297 36.797C16.0938 33.8281 13.4766 31.0743 10.0781 28.5352C7.12235 26.3011 4.16657 24.7777 1.21081 23.965C0.510761 23.7726 0 23.1518 0 22.4258C0 21.714 0.491114 21.1004 1.17556 20.905C4.07351 20.0775 6.86524 18.7342 9.55078 16.875C12.6367 14.7266 15.2148 12.1484 17.2852 9.14062C19.1167 6.46121 20.3739 3.81123 21.0569 1.19072C21.2358 0.504214 21.8402 0 22.5497 0C23.267 0 23.8756 0.51538 24.0502 1.21124C24.4444 2.78221 25.0605 4.3902 25.8984 6.03515C26.9532 8.06641 28.3007 10.0195 29.9414 11.8945C31.621 13.7305 33.4962 15.3906 35.5664 16.875C38.2718 18.7927 41.022 20.14 43.8174 20.9169C44.5032 21.1075 45 21.718 45 22.4297C45 23.152 44.4881 23.7676 43.7915 23.9587C42.0196 24.4444 40.1958 25.2279 38.3204 26.3086C36.0547 27.6367 33.9453 29.2187 31.9921 31.0547C30.0391 32.8516 28.4375 34.7461 27.1874 36.7382C25.6349 39.2159 24.5851 41.5676 24.0383 43.7938C23.8687 44.4843 23.2679 45 22.5571 45Z" fill="#BFBFB1"/>
</g>
<defs>
<clipPath id="clip0_5343_512">
<rect width="45" height="45" fill="white"/>
</clipPath>
</defs>
</svg>
